<?xml version="1.0" encoding="UTF-8"?>
<svg version="1.1" xmlns="http://www.w3.org/2000/svg" width="512" height="512">
<path d="M0 0 C3.87942305 1.82206065 7.37529084 4.12665693 10.9375 6.5 C11.98019043 7.17345459 13.02288086 7.84690918 14.09716797 8.54077148 C16.29818172 9.96374711 18.4943938 11.39417407 20.68603516 12.83154297 C24.93398571 15.61114344 29.21385223 18.33900301 33.49511719 21.06689453 C36.6346664 23.06866328 39.76914149 25.07815769 42.90234375 27.08984375 C48.65550411 30.7817357 54.41910412 34.45696854 60.1875 38.125 C61.08355957 38.69484619 61.97961914 39.26469238 62.90283203 39.85180664 C64.70127695 40.99537067 66.49977935 42.13884431 68.29833984 43.28222656 C72.86646057 46.18673564 77.43315077 49.09349229 82 52 C83.83332663 53.1666772 85.66665996 54.33334387 87.5 55.5 C98.5 62.5 109.5 69.5 120.5 76.5 C121.40766113 77.07758057 122.31532227 77.65516113 123.25048828 78.25024414 C125.08227445 79.41597061 126.9139803 80.58182331 128.74560547 81.74780273 C133.35195718 84.67989914 137.95972038 87.60973151 142.5703125 90.53515625 C148.05244112 94.01474441 153.52821814 97.50416638 159 101 C159.95438965 101.6089209 160.9087793 102.2178418 161.89208984 102.84521484 C164.70243681 104.64135816 167.50814053 106.44452619 170.3125 108.25 C171.17311035 108.79922119 172.0337207 109.34844238 172.92041016 109.91430664 C173.70593262 110.4221167 174.49145508 110.92992676 175.30078125 111.453125 C175.99341064 111.89817383 176.68604004 112.34322266 177.3996582 112.80175781 C179 114 179 114 180 116 C180.8220064 122.462671 179.53402262 125.51578657 175.62988281 130.64892578 C175.00952148 131.42478027 174.38916016 132.20063477 173.75 133 C173.1219043 133.81581543 172.49380859 134.63163086 171.84667969 135.47216797 C170.54928636 137.15708164 169.24486166 138.8366036 167.93359375 140.51074219 C166.07618051 142.90192721 164.26431501 145.31995638 162.46875 147.7578125 C161.92508789 148.49515625 161.38142578 149.2325 160.82128906 149.9921875 C159.79136836 151.39016563 158.76204957 152.78858744 157.73339844 154.1875 C154.22573826 158.88713087 154.22573826 158.88713087 152 160 C144.53333333 160.35555556 144.53333333 160.35555556 141 158 C141 208.82 141 259.64 141 312 C151.63085044 303.83299401 151.63085044 303.83299401 162.0625 295.4375 C180.66617899 280.27340077 196.24562504 269.87275591 221 272 C229.61175425 273.65306087 235.96274997 277.91054883 241.37890625 284.73828125 C245.1627875 290.89532845 244.86064131 298.03591163 244 305 C241.81228993 313.14650049 235.63365256 319.21190958 230.171875 325.37109375 C227.1848154 328.75094988 224.38317233 332.24484185 221.625 335.8125 C216.96818983 341.81216488 212.17442746 347.68724291 207.3347168 353.54003906 C203.34681682 358.36312125 199.38052514 363.20265884 195.4375 368.0625 C194.90527832 368.71847168 194.37305664 369.37444336 193.82470703 370.05029297 C192.75261853 371.37211273 191.6806781 372.69405259 190.60888672 374.01611328 C187.90837255 377.34606445 185.20399757 380.67287734 182.5 384 C179.2024585 388.05805288 175.90530236 392.11641722 172.609375 396.17578125 C161.60244013 409.7307356 161.60244013 409.7307356 156.11328125 416.4140625 C154.64271859 418.21353104 153.18251985 420.02149843 151.73046875 421.8359375 C135.8047 441.64140801 118.12726148 448.98731371 94.3828125 456.05078125 C92.46005834 456.62786322 90.53746986 457.20549748 88.61503601 457.78364563 C83.5060869 459.31830164 78.39479574 460.84500582 73.28290176 462.36981964 C68.00468554 463.94544521 62.72843985 465.52764401 57.4519043 467.10888672 C48.12278202 469.90334279 38.79162527 472.69093205 29.45940113 475.47500992 C22.75108569 477.47653819 16.04428625 479.48306832 9.33845901 481.49291515 C3.61665834 483.20763721 -2.10658315 484.91746848 -7.83087158 486.62387085 C-10.04620577 487.28460399 -12.26117983 487.94654593 -14.47576904 488.60977173 C-17.47601302 489.50738974 -20.47792946 490.39915748 -23.48046875 491.2890625 C-24.31475906 491.53981033 -25.14904938 491.79055817 -26.00862122 492.04890442 C-59.8130385 502.00737564 -86.90181653 492.77428925 -117.02061272 477.51901054 C-120.21102251 475.90388804 -123.40454415 474.29507902 -126.59901428 472.68800354 C-135.67345856 468.12194892 -144.74389243 463.5480088 -153.80834961 458.9621582 C-159.37456666 456.14667627 -164.94572098 453.34117571 -170.52002144 450.5417347 C-172.62962523 449.47984771 -174.73735957 448.41423759 -176.84309196 447.34469414 C-203.5402456 433.78753133 -219.33719206 432.98978206 -252 432 C-252 384.48 -252 336.96 -252 288 C-239.109375 287.938125 -226.21875 287.87625 -212.9375 287.8125 C-206.90843384 287.77153198 -206.90843384 287.77153198 -200.75756836 287.72973633 C-195.71984863 287.71618652 -195.71984863 287.71618652 -193.33644104 287.71366882 C-191.72659287 287.70916322 -190.11675254 287.69883355 -188.50697327 287.68327332 C-174.61764067 287.55613145 -161.98350552 289.1760645 -148 291 C-148.33 247.11 -148.66 203.22 -149 158 C-149.99 158.66 -150.98 159.32 -152 160 C-157.59016393 160.63114754 -157.59016393 160.63114754 -160 160 C-165.11260101 155.7336226 -168.88680209 150.10152134 -172.875 144.8125 C-173.55691406 143.91724609 -174.23882812 143.02199219 -174.94140625 142.09960938 C-176.97863275 139.41241061 -178.99495225 136.71128212 -181 134 C-181.67353516 133.09145264 -182.34707031 132.18290527 -183.04101562 131.24682617 C-183.67458984 130.37131104 -184.30816406 129.4957959 -184.9609375 128.59375 C-185.5286084 127.81322266 -186.0962793 127.03269531 -186.68115234 126.22851562 C-188.91027146 122.46187377 -188.87094271 120.28213498 -188 116 C-183.73664634 110.75962779 -177.96210238 107.660235 -172.25 104.1875 C-170.07995402 102.85021537 -167.91070797 101.51163196 -165.7421875 100.171875 C-164.62682617 99.48416016 -163.51146484 98.79644531 -162.36230469 98.08789062 C-156.99911203 94.75750843 -151.68631007 91.34980809 -146.375 87.9375 C-144.28260338 86.59497213 -142.19015579 85.25252369 -140.09765625 83.91015625 C-139.07945801 83.2567627 -138.06125977 82.60336914 -137.01220703 81.93017578 C-132.28556342 78.9014155 -127.54965632 75.88728258 -122.8125 72.875 C-121.91644043 72.30515381 -121.02038086 71.73530762 -120.09716797 71.14819336 C-118.29872305 70.00462933 -116.50022065 68.86115569 -114.70166016 67.71777344 C-110.13353943 64.81326436 -105.56684923 61.90650771 -101 59 C-99.16667337 57.8333228 -97.33334004 56.66665613 -95.5 55.5 C-94.5925 54.9225 -93.685 54.345 -92.75 53.75 C-82.66666667 47.33333333 -72.58333333 40.91666667 -62.5 34.5 C-61.5920166 33.92217773 -60.6840332 33.34435547 -59.74853516 32.74902344 C-57.92013828 31.58552768 -56.09168798 30.42211585 -54.26318359 29.25878906 C-48.65415194 25.69004142 -43.04699384 22.11837802 -37.44189453 18.54345703 C-35.58249659 17.35961778 -33.72152276 16.17824962 -31.85888672 14.99951172 C-27.6577571 12.34069382 -23.47598832 9.66333878 -19.34375 6.8984375 C-18.62622559 6.42696289 -17.90870117 5.95548828 -17.16943359 5.46972656 C-15.8604945 4.60877164 -14.5603131 3.7342575 -13.27197266 2.84277344 C-8.93729648 0.02337432 -5.04972002 -1.24398813 0 0 Z " fill="#010101" transform="translate(260,8)"/>
<path d="M0 0 C2.65450744 0.76959248 4.57315237 1.73058267 6.90478516 3.2019043 C7.72285645 3.71309814 8.54092773 4.22429199 9.38378906 4.75097656 C10.25825684 5.30841553 11.13272461 5.86585449 12.03369141 6.44018555 C12.95456543 7.01889404 13.87543945 7.59760254 14.82421875 8.19384766 C17.7536641 10.03832243 20.67558581 11.89425068 23.59619141 13.75268555 C25.4646525 14.93762631 27.33314161 16.12252289 29.20166016 17.30737305 C32.88701071 19.64765526 36.56887867 21.99330554 40.24853516 24.3425293 C45.25110185 27.5354844 50.26462976 30.71073567 55.28369141 33.87768555 C56.05600098 34.36503174 56.82831055 34.85237793 57.62402344 35.35449219 C59.17246126 36.33140151 60.72096359 37.3082086 62.26953125 38.28491211 C66.21279386 40.77251912 70.15439909 43.26274969 74.09619141 45.75268555 C75.67951701 46.75269779 77.26285034 47.7526978 78.84619141 48.75268555 C82.01285807 50.75268555 85.17952474 52.75268555 88.34619141 54.75268555 C89.13098877 55.24833008 89.91578613 55.74397461 90.72436523 56.25463867 C92.29718111 57.24803015 93.86993569 58.24151868 95.44262695 59.23510742 C99.56136291 61.83704418 103.68135976 64.43695471 107.80322266 67.03393555 C108.65787109 67.57276367 109.51251953 68.1115918 110.39306641 68.66674805 C112.02157691 69.69341771 113.65045909 70.71949816 115.27978516 71.74487305 C116.38966797 72.44483398 116.38966797 72.44483398 117.52197266 73.15893555 C118.48744019 73.76705078 118.48744019 73.76705078 119.47241211 74.38745117 C120.17325928 74.83797852 120.87410645 75.28850586 121.59619141 75.75268555 C122.61400255 76.2914586 123.6318137 76.83023165 124.68046761 77.38533115 C127.59619141 79.75268555 127.59619141 79.75268555 128.35682487 83.02641964 C128.36168467 84.33624593 128.36654446 85.64607222 128.37155151 86.99559021 C128.38770813 88.09185882 128.38770813 88.09185882 128.40419114 89.21027428 C128.43281999 91.66056097 128.41853098 94.10869699 128.40429688 96.55908203 C128.4157008 98.31510153 128.42962799 100.07110619 128.44589233 101.8270874 C128.48182628 106.59790842 128.47940586 111.36799522 128.46800756 116.13891101 C128.46183376 120.12019037 128.47399751 124.10132766 128.48608506 128.08258682 C128.51419548 137.47412302 128.51103688 146.86529544 128.48828125 156.25683594 C128.46531609 165.94908866 128.49346804 175.64023475 128.5470742 185.33234161 C128.59136292 193.65098227 128.60466893 201.96927523 128.59292138 210.28802544 C128.5861734 215.25769514 128.59106819 220.22665543 128.62542343 225.19622612 C128.65631955 229.86954036 128.64850451 234.54121344 128.61081314 239.21446228 C128.60342869 240.92973576 128.60969623 242.64513025 128.63058472 244.36029243 C128.77662657 257.34275721 128.77662657 257.34275721 125.83326244 260.85835266 C123.76667082 262.18026627 121.9256196 263.01134613 119.59619141 263.75268555 C118.79834229 264.16663574 118.00049316 264.58058594 117.1784668 265.00708008 C116.52354248 265.29695801 115.86861816 265.58683594 115.19384766 265.88549805 C114.07526367 266.38243164 114.07526367 266.38243164 112.93408203 266.8894043 C112.18320312 267.21553711 111.43232422 267.54166992 110.65869141 267.87768555 C109.91167969 268.21155273 109.16466797 268.54541992 108.39501953 268.8894043 C94.00399287 275.2219527 94.00399287 275.2219527 89.59619141 273.75268555 C88.25681729 272.09086951 86.92409963 270.42367786 85.59619141 268.75268555 C78.65749254 262.80707183 71.24092662 262.28752314 62.49462891 262.3659668 C61.37844177 262.37160645 60.26225464 262.37724609 59.11224365 262.38305664 C43.45299226 262.62720811 27.88573393 264.38572701 12.32061768 265.99761963 C5.73609749 266.67635745 -0.85100074 267.32983241 -7.43766022 267.9874115 C-9.71248268 268.21633337 -11.98673564 268.45030878 -14.26092529 268.6854248 C-15.65197316 268.82702872 -17.04302518 268.96859183 -18.43408203 269.11010742 C-20.24172028 269.29663879 -20.24172028 269.29663879 -22.08587646 269.48693848 C-28.83837303 270.02777419 -31.94999529 269.84928005 -37.59130859 265.87768555 C-56.41104912 253.14526128 -77.20769536 244.68547 -98.65380859 237.50268555 C-99.88462158 237.09018555 -101.11543457 236.67768555 -102.38354492 236.25268555 C-108.67163497 234.18614952 -114.96306519 232.28855531 -121.36376953 230.60913086 C-122.38710892 230.33850327 -122.38710892 230.33850327 -123.43112183 230.06240845 C-125.08830013 229.62437895 -126.74599919 229.1883204 -128.40380859 228.75268555 C-128.94268623 209.58604943 -129.34742165 190.42096228 -129.59548855 171.24830532 C-129.71377306 162.34426666 -129.87477836 153.44495023 -130.13891602 144.54394531 C-130.36922279 136.77923853 -130.51677698 129.01795052 -130.56784397 121.24992329 C-130.5976806 117.13991463 -130.66692394 113.03967781 -130.8355999 108.9328289 C-131.81730257 84.07684635 -131.81730257 84.07684635 -126.18257523 76.93886185 C-120.79759276 72.1508506 -114.81218421 68.95928846 -108.25470161 66.05887032 C-104.04792359 64.13146394 -100.23078233 61.68035258 -96.34130859 59.19018555 C-94.89301403 58.30891225 -93.4427368 57.43088193 -91.98974609 56.55737305 C-83.93809311 51.66295467 -76.02938863 46.53757555 -68.08935547 41.46508789 C-63.97281653 38.84023297 -59.84543194 36.2326848 -55.71630859 33.62768555 C-54.94424072 33.14050049 -54.17217285 32.65331543 -53.37670898 32.15136719 C-51.82803094 31.17428888 -50.27928451 30.19731898 -48.73046875 29.22045898 C-44.00448615 26.23907311 -39.28062451 23.25432689 -34.55664062 20.26977539 C-30.43813245 17.66802734 -26.31839205 15.06826001 -22.19677734 12.47143555 C-20.91480469 11.66319336 -20.91480469 11.66319336 -19.60693359 10.83862305 C-17.97842309 9.81195338 -16.34954091 8.78587293 -14.72021484 7.76049805 C-13.98029297 7.29385742 -13.24037109 6.8272168 -12.47802734 6.34643555 C-11.77726074 5.9081543 -11.07649414 5.46987305 -10.35449219 5.01831055 C-9.11299717 4.21281491 -7.89328998 3.37189008 -6.70703125 2.48706055 C-2.95422913 -0.30394415 -2.95422913 -0.30394415 0 0 Z " fill="#9D725F" transform="translate(256.40380859375,74.247314453125)"/>
<path d="M0 0 C2.39989427 3.5998414 2.64136132 4.75098128 2 9 C0.85180664 10.80981445 0.85180664 10.80981445 -0.65234375 12.73828125 C-1.19810059 13.44186768 -1.74385742 14.1454541 -2.30615234 14.87036133 C-3.14460693 15.92453247 -3.14460693 15.92453247 -4 17 C-4.49580566 17.62350342 -4.99161133 18.24700684 -5.50244141 18.8894043 C-7.01231545 20.76809679 -8.53522266 22.63543312 -10.0625 24.5 C-11.20967656 25.90621643 -12.35681078 27.31246741 -13.50390625 28.71875 C-14.08414551 29.42902344 -14.66438477 30.13929688 -15.26220703 30.87109375 C-18.01420695 34.24246763 -20.75679284 37.62147123 -23.5 41 C-24.57808212 42.32685776 -25.65620726 43.65368056 -26.734375 44.98046875 C-28.95364061 47.71182122 -31.1723195 50.44364896 -33.390625 53.17578125 C-38.79529309 59.83152992 -44.20760639 66.48063627 -49.640625 73.11328125 C-54.21049414 78.70456154 -58.7588169 84.313385 -63.31054688 89.91943359 C-64.96189799 91.95307726 -66.61366218 93.98638447 -68.265625 96.01953125 C-68.80010254 96.67735596 -69.33458008 97.33518066 -69.88525391 98.01293945 C-70.96027753 99.3358329 -72.03547239 100.65858721 -73.11083984 101.98120117 C-75.89885185 105.41081824 -78.68296729 108.84349237 -81.4609375 112.28125 C-84.17869774 115.64390904 -86.91073074 118.99452492 -89.65039062 122.33935547 C-90.77703383 123.72564836 -91.88330092 125.12846909 -92.984375 126.53515625 C-100.24311026 135.5048791 -109.14435675 139.26573295 -119.84472656 142.74560547 C-120.89864216 143.09226194 -121.95255775 143.43891842 -123.03841019 143.79607964 C-134.64820977 147.58602822 -146.34042845 151.09314494 -158.046875 154.5703125 C-160.36372824 155.26161389 -162.68047808 155.95326191 -164.99713135 156.64523315 C-171.02485807 158.44471495 -177.05392028 160.2396788 -183.08331299 162.03356934 C-189.18264973 163.84910558 -195.28073598 165.66883161 -201.37890625 167.48828125 C-208.26416158 169.54232022 -215.14952976 171.59597345 -222.03582764 173.64651489 C-224.11991518 174.26710534 -226.20400131 174.88770052 -228.28808594 175.50830078 C-229.2819569 175.80425203 -230.27582787 176.10020329 -231.29981613 176.40512276 C-238.72522271 178.61739609 -246.14728303 180.84069201 -253.56640244 183.07396126 C-276.3114329 189.91265438 -295.67722881 190.12459605 -317.34375 179.6640625 C-318.3109346 179.19946121 -319.2781192 178.73485992 -320.27461243 178.25617981 C-329.64727426 173.71817274 -338.93656348 169.01655785 -348.22638512 164.31199837 C-350.93762167 162.93926825 -353.64969164 161.56819838 -356.36201477 160.19761658 C-358.20944389 159.2639093 -360.05687124 158.33019854 -361.90429688 157.39648438 C-362.82926059 156.92908624 -363.7542243 156.4616881 -364.70721722 155.98012638 C-369.43073548 153.59198022 -374.15112437 151.19795845 -378.8659668 148.79272461 C-383.50839306 146.42498241 -388.15885321 144.07371396 -392.81475258 141.732584 C-394.55679506 140.85306259 -396.29600188 139.96789588 -398.03194237 139.07639122 C-400.47493609 137.82272343 -402.92783734 136.59059932 -405.38354492 135.36206055 C-406.06096741 135.00818268 -406.73838989 134.65430481 -407.43634033 134.28970337 C-431.24999615 122.5451134 -450.71903343 124.63444108 -478 124 C-478 87.04 -478 50.08 -478 12 C-460.365625 11.938125 -460.365625 11.938125 -442.375 11.875 C-438.71196777 11.85679199 -435.04893555 11.83858398 -431.27490234 11.81982422 C-410.33258587 11.75789103 -389.63289616 11.90583135 -369.0625 16.375 C-368.01457275 16.59414063 -366.96664551 16.81328125 -365.88696289 17.0390625 C-357.8398314 18.74981614 -349.89621754 20.68341563 -342 23 C-340.24429688 23.48146484 -340.24429688 23.48146484 -338.453125 23.97265625 C-313.86444395 31.08908987 -288.90726552 42.26147614 -268.203125 57.41796875 C-260.4916515 61.22668432 -249.82019054 58.52198338 -241.43021393 57.70362854 C-238.96259653 57.46359167 -236.49444962 57.22990019 -234.02606201 56.9979248 C-227.01241934 56.33803612 -219.99957915 55.67006131 -212.98779297 54.99072266 C-178.90202703 51.6963993 -178.90202703 51.6963993 -166.484375 51.40625 C-165.6918634 51.36922974 -164.89935181 51.33220947 -164.08282471 51.29406738 C-158.72524145 51.28658577 -156.07174288 52.99322731 -152.33062744 56.51306152 C-149.75713956 59.38886134 -149.78963052 61.96095497 -149.57421875 65.734375 C-150.34395516 69.8302201 -152.38869094 72.81868706 -155.75561523 75.28710938 C-157.92218193 76.58102023 -160.11950471 77.74310029 -162.375 78.875 C-163.62434326 79.51344849 -163.62434326 79.51344849 -164.89892578 80.16479492 C-181.18131579 88.25464498 -198.25882612 93.28521543 -216 97 C-217.19206055 97.26731934 -217.19206055 97.26731934 -218.40820312 97.54003906 C-231.74721079 100.42572877 -245.17843467 100.1262445 -258.75 100.0625 C-260.62239463 100.05747365 -262.49479058 100.05291276 -264.3671875 100.04882812 C-268.91149123 100.03791543 -273.45573081 100.02071371 -278 100 C-278 105.28 -278 110.56 -278 116 C-272.16886096 115.90517846 -266.33807619 115.79883214 -260.50732422 115.68261719 C-258.53114298 115.64475562 -256.55490279 115.60983548 -254.57861328 115.578125 C-219.04661096 115.00124825 -167.34655864 109.10232145 -140.75 82.36328125 C-137.28643084 77.68591665 -135.28061348 72.28691284 -134.78540039 66.48632812 C-134 64 -134 64 -131.76953125 62.65722656 C-130.79371094 62.32174805 -129.81789063 61.98626953 -128.8125 61.640625 C-127.72960693 61.25213379 -126.64671387 60.86364258 -125.53100586 60.46337891 C-124.36577393 60.06296387 -123.20054199 59.66254883 -122 59.25 C-97.61367168 50.34818618 -78.55798474 37.06978527 -58.76367188 20.46826172 C-55.97275644 18.1448169 -53.11845878 15.91184286 -50.23046875 13.7109375 C-48.44556432 12.34178139 -46.68194868 10.94488903 -44.92578125 9.5390625 C-31.99171066 -0.75547925 -15.92523114 -10.51666208 0 0 Z " fill="#F1B79D" transform="translate(486,300)"/>
<path d="M0 0 C2.65450744 0.76959248 4.57315237 1.73058267 6.90478516 3.2019043 C7.72285645 3.71309814 8.54092773 4.22429199 9.38378906 4.75097656 C10.25825684 5.30841553 11.13272461 5.86585449 12.03369141 6.44018555 C12.95456543 7.01889404 13.87543945 7.59760254 14.82421875 8.19384766 C17.7536641 10.03832243 20.67558581 11.89425068 23.59619141 13.75268555 C25.4646525 14.93762631 27.33314161 16.12252289 29.20166016 17.30737305 C32.88701071 19.64765526 36.56887867 21.99330554 40.24853516 24.3425293 C45.25110185 27.5354844 50.26462976 30.71073567 55.28369141 33.87768555 C56.05600098 34.36503174 56.82831055 34.85237793 57.62402344 35.35449219 C59.17246126 36.33140151 60.72096359 37.3082086 62.26953125 38.28491211 C66.21279386 40.77251912 70.15439909 43.26274969 74.09619141 45.75268555 C75.67951701 46.75269779 77.26285034 47.7526978 78.84619141 48.75268555 C82.01285807 50.75268555 85.17952474 52.75268555 88.34619141 54.75268555 C89.13098877 55.24833008 89.91578613 55.74397461 90.72436523 56.25463867 C92.29718111 57.24803015 93.86993569 58.24151868 95.44262695 59.23510742 C99.56136291 61.83704418 103.68135976 64.43695471 107.80322266 67.03393555 C108.65787109 67.57276367 109.51251953 68.1115918 110.39306641 68.66674805 C112.02157691 69.69341771 113.65045909 70.71949816 115.27978516 71.74487305 C116.38966797 72.44483398 116.38966797 72.44483398 117.52197266 73.15893555 C118.48744019 73.76705078 118.48744019 73.76705078 119.47241211 74.38745117 C120.17325928 74.83797852 120.87410645 75.28850586 121.59619141 75.75268555 C122.61400255 76.2914586 123.6318137 76.83023165 124.68046761 77.38533115 C127.59619141 79.75268555 127.59619141 79.75268555 128.35682487 83.02641964 C128.36168467 84.33624593 128.36654446 85.64607222 128.37155151 86.99559021 C128.38770813 88.09185882 128.38770813 88.09185882 128.40419114 89.21027428 C128.43281999 91.66056097 128.41853098 94.10869699 128.40429688 96.55908203 C128.4157008 98.31510153 128.42962799 100.07110619 128.44589233 101.8270874 C128.48182628 106.59790842 128.47940586 111.36799522 128.46800756 116.13891101 C128.46183376 120.12019037 128.47399751 124.10132766 128.48608506 128.08258682 C128.51419548 137.47412302 128.51103688 146.86529544 128.48828125 156.25683594 C128.46531609 165.94908866 128.49346804 175.64023475 128.5470742 185.33234161 C128.59136292 193.65098227 128.60466893 201.96927523 128.59292138 210.28802544 C128.5861734 215.25769514 128.59106819 220.22665543 128.62542343 225.19622612 C128.65631955 229.86954036 128.64850451 234.54121344 128.61081314 239.21446228 C128.60342869 240.92973576 128.60969623 242.64513025 128.63058472 244.36029243 C128.77662657 257.34275721 128.77662657 257.34275721 125.83326244 260.85835266 C123.76667082 262.18026627 121.9256196 263.01134613 119.59619141 263.75268555 C118.79834229 264.16663574 118.00049316 264.58058594 117.1784668 265.00708008 C116.52354248 265.29695801 115.86861816 265.58683594 115.19384766 265.88549805 C114.07526367 266.38243164 114.07526367 266.38243164 112.93408203 266.8894043 C112.18320312 267.21553711 111.43232422 267.54166992 110.65869141 267.87768555 C109.91167969 268.21155273 109.16466797 268.54541992 108.39501953 268.8894043 C94.00399287 275.2219527 94.00399287 275.2219527 89.59619141 273.75268555 C88.25681729 272.09086951 86.92409963 270.42367786 85.59619141 268.75268555 C78.65749254 262.80707183 71.24092662 262.28752314 62.49462891 262.3659668 C61.37844177 262.37160645 60.26225464 262.37724609 59.11224365 262.38305664 C43.45299226 262.62720811 27.88573393 264.38572701 12.32061768 265.99761963 C5.73609749 266.67635745 -0.85100074 267.32983241 -7.43766022 267.9874115 C-9.71248268 268.21633337 -11.98673564 268.45030878 -14.26092529 268.6854248 C-15.65197316 268.82702872 -17.04302518 268.96859183 -18.43408203 269.11010742 C-20.24172028 269.29663879 -20.24172028 269.29663879 -22.08587646 269.48693848 C-28.83837303 270.02777419 -31.94999529 269.84928005 -37.59130859 265.87768555 C-56.41104912 253.14526128 -77.20769536 244.68547 -98.65380859 237.50268555 C-99.88462158 237.09018555 -101.11543457 236.67768555 -102.38354492 236.25268555 C-108.67163497 234.18614952 -114.96306519 232.28855531 -121.36376953 230.60913086 C-122.38710892 230.33850327 -122.38710892 230.33850327 -123.43112183 230.06240845 C-125.08830013 229.62437895 -126.74599919 229.1883204 -128.40380859 228.75268555 C-128.94268623 209.58604943 -129.34742165 190.42096228 -129.59548855 171.24830532 C-129.71377306 162.34426666 -129.87477836 153.44495023 -130.13891602 144.54394531 C-130.36922279 136.77923853 -130.51677698 129.01795052 -130.56784397 121.24992329 C-130.5976806 117.13991463 -130.66692394 113.03967781 -130.8355999 108.9328289 C-131.81730257 84.07684635 -131.81730257 84.07684635 -126.18257523 76.93886185 C-120.79759276 72.1508506 -114.81218421 68.95928846 -108.25470161 66.05887032 C-104.04792359 64.13146394 -100.23078233 61.68035258 -96.34130859 59.19018555 C-94.89301403 58.30891225 -93.4427368 57.43088193 -91.98974609 56.55737305 C-83.93809311 51.66295467 -76.02938863 46.53757555 -68.08935547 41.46508789 C-63.97281653 38.84023297 -59.84543194 36.2326848 -55.71630859 33.62768555 C-54.94424072 33.14050049 -54.17217285 32.65331543 -53.37670898 32.15136719 C-51.82803094 31.17428888 -50.27928451 30.19731898 -48.73046875 29.22045898 C-44.00448615 26.23907311 -39.28062451 23.25432689 -34.55664062 20.26977539 C-30.43813245 17.66802734 -26.31839205 15.06826001 -22.19677734 12.47143555 C-20.91480469 11.66319336 -20.91480469 11.66319336 -19.60693359 10.83862305 C-17.97842309 9.81195338 -16.34954091 8.78587293 -14.72021484 7.76049805 C-13.98029297 7.29385742 -13.24037109 6.8272168 -12.47802734 6.34643555 C-11.77726074 5.9081543 -11.07649414 5.46987305 -10.35449219 5.01831055 C-9.11299717 4.21281491 -7.89328998 3.37189008 -6.70703125 2.48706055 C-2.95422913 -0.30394415 -2.95422913 -0.30394415 0 0 Z M-74.59130859 77.94018555 C-76.18702174 79.98287717 -77.61874015 82.08046899 -79.04052734 84.2487793 C-83.51243379 91.01190971 -87.47376923 94.55893598 -94.85302734 97.8425293 C-102.09562295 101.1366348 -108.04319317 105.65705312 -111.47363281 113.06201172 C-114.87304395 122.89532146 -111.34022907 132.25943812 -107.60644531 141.40820312 C-106.77909791 143.43947524 -105.98593444 145.48170513 -105.19677734 147.52807617 C-100.26958312 160.92097872 -100.26958312 160.92097872 -90.13037109 170.2331543 C-87.7365164 171.56895481 -86.63584653 172.18914513 -85.58251953 174.74731445 C-85.15231659 177.19532467 -84.93430675 179.58474301 -84.77880859 182.06518555 C-82.67082438 201.65640883 -74.59609765 217.76936433 -59.40380859 230.75268555 C-41.92391063 243.7232765 -24.73098696 246.26929954 -3.57446289 246.14379883 C-0.34462357 246.12770207 2.8839679 246.14372039 6.11376953 246.1628418 C21.10293073 246.20447471 21.10293073 246.20447471 35.59619141 242.75268555 C36.72154297 242.3762793 37.84689453 241.99987305 39.00634766 241.61206055 C58.23058662 233.57128902 71.23663611 220.78793778 79.53759766 201.62768555 C81.84105038 195.37181393 83.31997991 188.88890976 83.90478516 182.2487793 C84.70081506 173.61038073 84.70081506 173.61038073 87.54541016 170.88549805 C89.90869141 169.44018555 89.90869141 169.44018555 92.20947266 168.3894043 C99.43297605 163.43580704 102.05715165 153.31612932 105.1003418 145.45385742 C105.90710611 143.38175723 106.74014087 141.32153066 107.57470703 139.26049805 C111.08857114 130.37756446 113.86079099 121.86872053 110.03369141 112.56518555 C105.79453199 103.24194834 98.93562292 99.57890756 89.90087891 95.52612305 C83.43629337 92.0569483 79.61219886 86.31190647 75.43408203 80.48120117 C71.32384004 74.94693833 66.41544697 71.29666794 59.59619141 69.75268555 C52.23098821 68.88003114 47.13322734 69.8898615 40.68994141 73.5612793 C38.25494744 74.94686355 36.46625451 75.89916082 33.63842773 75.4230957 C32.90906006 75.21475098 32.17969238 75.00640625 31.42822266 74.79174805 C30.21102539 74.45530273 30.21102539 74.45530273 28.96923828 74.11206055 C28.12425781 73.8697168 27.27927734 73.62737305 26.40869141 73.37768555 C6.72918344 67.78569421 -13.84232701 67.96938639 -33.34912109 74.39331055 C-35.00949534 74.92936429 -36.70624785 75.34959279 -38.40380859 75.75268555 C-41.52880859 74.00268555 -41.52880859 74.00268555 -44.40380859 71.75268555 C-54.83253443 66.75741351 -66.91606603 69.39413709 -74.59130859 77.94018555 Z " fill="#FDD785" transform="translate(256.40380859375,74.247314453125)"/>
<path d="M0 0 C2.41762048 1.22112708 4.74460666 2.51206026 7.05859375 3.91796875 C8.04859375 4.41296875 8.04859375 4.41296875 9.05859375 4.91796875 C11.11177336 4.22197566 13.16440512 3.52433969 15.21484375 2.8203125 C35.98583724 -3.77048351 57.98374146 -2.39433001 78.62109375 3.91796875 C81.79160055 4.77156673 83.36975407 5.17292889 86.46484375 4.02734375 C88.61731305 2.72660327 88.61731305 2.72660327 90.4375 1.21484375 C94.77332756 -2.2538183 100.82683521 -1.59261731 106.05859375 -1.08203125 C114.69592825 1.47472574 119.90362198 6.33528653 124.74609375 13.79296875 C129.52066361 20.80083421 134.44581517 24.44144439 142.21875 27.87109375 C149.06945753 30.9862517 153.97245283 35.81316215 156.99609375 42.79296875 C159.90933145 52.80363442 157.01607122 61.10886833 153.26123047 70.42260742 C152.43674385 72.47263626 151.64246993 74.53251971 150.8515625 76.59570312 C143.59122741 95.2320993 143.59122741 95.2320993 135.7890625 99.421875 C132.86909155 101.04642698 132.86909155 101.04642698 131.22119141 103.85107422 C130.77302966 106.19502721 130.53857494 108.47519855 130.37109375 110.85546875 C130.17571143 112.5637152 129.96988127 114.27079729 129.75390625 115.9765625 C129.59583496 117.23509033 129.59583496 117.23509033 129.43457031 118.51904297 C126.63982212 136.35098829 115.65652712 151.62571117 101.55859375 162.35546875 C88.65068415 171.21816451 75.01838155 175.03819075 59.53515625 175.15625 C58.51618256 175.16432175 57.49720886 175.17239349 56.44735718 175.18070984 C54.29060546 175.19451234 52.13383226 175.20525156 49.97705078 175.21313477 C47.79925001 175.22459687 45.62147603 175.24495581 43.44384766 175.2746582 C20.42785856 175.58805103 0.30423773 172.5354691 -16.93310547 156.05419922 C-28.4331424 144.59364061 -36.28497651 130.61816475 -37.81396484 114.31933594 C-38.36050145 106.36815491 -38.36050145 106.36815491 -41.95703125 99.5703125 C-44.23672092 98.12275037 -44.23672092 98.12275037 -46.58984375 97.30859375 C-53.79334596 93.04871537 -56.52896178 82.2196536 -59.44555664 74.72900391 C-60.25006704 72.67775753 -61.08425052 70.64027647 -61.91992188 68.6015625 C-65.5612597 59.46268002 -68.41762592 50.13445386 -64.37890625 40.60546875 C-59.41753831 32.35357155 -52.84976548 28.55082136 -44.24609375 24.69140625 C-38.53698319 21.62765188 -35.33204284 17.21894029 -31.69140625 11.98046875 C-24.01362362 1.55511842 -13.07954248 -4.81146516 0 0 Z M-20.19140625 23.66796875 C-26.23108075 32.46937475 -33.4360581 37.57595074 -42.88867188 42.21728516 C-46.20477034 43.86250119 -47.84152644 44.76814903 -49.94140625 47.91796875 C-49.84806761 56.21662279 -46.77976836 63.21133419 -43.62890625 70.79296875 C-43.14228516 72.015 -42.65566406 73.23703125 -42.15429688 74.49609375 C-41.4359668 76.24792969 -41.4359668 76.24792969 -40.703125 78.03515625 C-40.26959717 79.09331543 -39.83606934 80.15147461 -39.3894043 81.24169922 C-37.85680098 84.07434086 -36.75073244 85.3769712 -33.94140625 86.91796875 C-30.66445648 86.80298806 -28.10220053 86.69311884 -25.3269043 84.83984375 C-23.23475934 81.93775298 -22.89262765 78.74977995 -22.3359375 75.29296875 C-22.20700607 74.54966309 -22.07807465 73.80635742 -21.94523621 73.04052734 C-21.53687658 70.66810344 -21.14553188 68.29320587 -20.75390625 65.91796875 C-20.47956022 64.31883086 -20.20418122 62.71986981 -19.92773438 61.12109375 C-18.50403541 53.56067467 -18.50403541 53.56067467 -17.94140625 45.91796875 C-17.20535156 46.06234375 -16.46929687 46.20671875 -15.7109375 46.35546875 C-14.73511719 46.54109375 -13.75929687 46.72671875 -12.75390625 46.91796875 C-11.30951172 47.19640625 -11.30951172 47.19640625 -9.8359375 47.48046875 C-7.14798565 47.88674487 -4.65369606 47.99730447 -1.94140625 47.91796875 C-3.06880471 53.94475306 -4.21303185 59.96795266 -5.37695312 65.98779297 C-5.74132981 67.87933665 -6.10225876 69.77154927 -6.45898438 71.66455078 C-6.94058976 74.20997689 -7.43886921 76.75160339 -7.94140625 79.29296875 C-8.08288086 80.05778564 -8.22435547 80.82260254 -8.37011719 81.6105957 C-9.85229343 88.93634098 -12.552496 94.60545433 -18.94140625 98.91796875 C-20.26794286 99.59805908 -21.60021163 100.26726204 -22.94140625 100.91796875 C-22.63552769 117.1573397 -18.44128819 130.56809861 -7.44140625 142.66796875 C-6.20390625 143.78171875 -6.20390625 143.78171875 -4.94140625 144.91796875 C-4.44253906 145.3975 -3.94367188 145.87703125 -3.4296875 146.37109375 C6.65282453 155.67802793 19.37841723 159.39385849 32.859375 159.3515625 C33.85760788 159.35680435 34.85584076 159.3620462 35.88432312 159.3674469 C37.98268714 159.3738292 40.08108712 159.37257971 42.17944336 159.36401367 C45.35271412 159.35551796 48.5241726 159.38429699 51.69726562 159.41601562 C62.49728178 159.45281548 71.98831165 159.20637278 82.05859375 154.91796875 C82.82010742 154.60730469 83.58162109 154.29664063 84.36621094 153.9765625 C96.65630965 148.69022394 105.05174171 138.29506276 110.6953125 126.49609375 C114.06841674 117.952185 114.91844245 110.01506239 115.05859375 100.91796875 C114.53910156 100.63824219 114.01960937 100.35851562 113.484375 100.0703125 C112.78699219 99.66941406 112.08960938 99.26851563 111.37109375 98.85546875 C110.68660156 98.47261719 110.00210938 98.08976562 109.296875 97.6953125 C103.20505914 92.85800671 101.22057187 87.26732552 99.99609375 79.79296875 C99.84108398 78.93928711 99.68607422 78.08560547 99.52636719 77.20605469 C99.19746735 75.39282131 98.87552477 73.57831408 98.56005859 71.76269531 C97.86836769 67.83884798 97.11221554 63.92827786 96.35766602 60.01611328 C95.58061591 55.98540339 94.81997409 51.95166459 94.05859375 47.91796875 C101.97859375 46.92796875 101.97859375 46.92796875 110.05859375 45.91796875 C110.33123047 47.9134375 110.33123047 47.9134375 110.609375 49.94921875 C111.392259 55.61051777 112.21326135 61.2656704 113.05859375 66.91796875 C113.18137695 67.74312988 113.30416016 68.56829102 113.43066406 69.41845703 C113.76605667 71.60959636 114.12571584 73.79500579 114.49609375 75.98046875 C114.70105469 77.22957031 114.90601563 78.47867188 115.1171875 79.765625 C116.16038396 83.25881811 117.1886121 84.71442479 120.05859375 86.91796875 C123.01551084 87.6681207 123.01551084 87.6681207 126.05859375 86.91796875 C130.05675641 83.51780027 132.04957203 80.37100822 133.953125 75.515625 C134.43330078 74.29552734 134.91347656 73.07542969 135.40820312 71.81835938 C135.64821045 71.18776611 135.88821777 70.55717285 136.13549805 69.9074707 C136.87035229 67.98241111 137.6297298 66.06841067 138.39257812 64.15429688 C141.57643454 56.28339382 141.57643454 56.28339382 142.05859375 47.91796875 C139.18379108 43.81110779 135.8707292 42.27590608 131.37109375 40.16796875 C121.38630451 35.35321762 114.88532484 28.31004768 108.75 19.203125 C106.58500093 16.27812625 104.90388106 15.07165735 101.30859375 14.41796875 C97.76228869 14.96355414 97.1717853 15.48657405 94.68359375 17.85546875 C91.77667089 20.5159351 89.48975679 21.92434396 85.40234375 22.16015625 C81.27157966 21.73331063 77.45253709 20.33916655 73.5234375 19.04296875 C52.3250837 12.16007597 31.55272994 13.9599658 10.640625 21.08203125 C6.98076791 22.2669169 4.75822996 21.95646312 1.05859375 20.91796875 C-0.73046875 19.5078125 -0.73046875 19.5078125 -2.50390625 17.85546875 C-4.93007895 15.60298179 -5.70648601 14.9649528 -9.06640625 14.29296875 C-14.7419732 15.52678765 -17.10093844 19.05002834 -20.19140625 23.66796875 Z " fill="#020201" transform="translate(209.94140625,145.08203125)"/>
<path d="M0 0 C2.37402344 1.23657227 2.37402344 1.23657227 4.859375 2.81640625 C6.26630615 3.70307983 6.26630615 3.70307983 7.70166016 4.60766602 C8.7076123 5.25276123 9.71356445 5.89785645 10.75 6.5625 C11.80622559 7.23144287 12.86245117 7.90038574 13.95068359 8.58959961 C17.30592845 10.71802269 20.65353833 12.85779799 24 15 C26.12233125 16.35426789 28.24472584 17.70843651 30.3671875 19.0625 C34.54868107 21.73345792 38.72667435 24.40979062 42.90234375 27.08984375 C48.65550411 30.7817357 54.41910412 34.45696854 60.1875 38.125 C61.08355957 38.69484619 61.97961914 39.26469238 62.90283203 39.85180664 C64.70127695 40.99537067 66.49977935 42.13884431 68.29833984 43.28222656 C72.86646057 46.18673564 77.43315077 49.09349229 82 52 C83.83332663 53.1666772 85.66665996 54.33334387 87.5 55.5 C91.16666667 57.83333333 94.83333333 60.16666667 98.5 62.5 C99.40741943 63.07741943 100.31483887 63.65483887 101.24975586 64.24975586 C103.08401023 65.41706785 104.91815729 66.58454847 106.75219727 67.75219727 C111.32057614 70.66037919 115.89075106 73.56565573 120.46484375 76.46484375 C130.27382594 82.68538713 140.06015283 88.94099733 149.8125 95.25 C150.81595459 95.89445068 151.81940918 96.53890137 152.85327148 97.20288086 C153.77438721 97.80108643 154.69550293 98.39929199 155.64453125 99.015625 C156.46284424 99.54446289 157.28115723 100.07330078 158.12426758 100.61816406 C160 102 160 102 161 104 C156.71 109.94 152.42 115.88 148 122 C144.74167727 120.69667091 142.23574631 119.66535377 139.34765625 117.890625 C138.66517822 117.47304932 137.9827002 117.05547363 137.27954102 116.62524414 C136.18210571 115.94449829 136.18210571 115.94449829 135.0625 115.25 C133.89255493 114.52961548 133.89255493 114.52961548 132.69897461 113.79467773 C123.63605055 108.19313229 114.66381515 102.44816618 105.68554688 96.71240234 C101.56900794 94.08754742 97.44162334 91.47999925 93.3125 88.875 C92.54043213 88.38781494 91.76836426 87.90062988 90.97290039 87.39868164 C89.42422235 86.42160334 87.87547591 85.44463343 86.32666016 84.46777344 C82.38339755 81.98016643 78.44179232 79.48993586 74.5 77 C72.9166744 75.99998776 71.33334107 74.99998775 69.75 74 C41.25 56 41.25 56 38.87231445 54.49829102 C37.29794843 53.50396311 35.72356706 52.5096595 34.14916992 51.51538086 C30.05350691 48.92880267 25.95815658 46.34173129 21.86328125 43.75390625 C21.01765625 43.21958984 20.17203125 42.68527344 19.30078125 42.13476562 C17.69781651 41.12190329 16.09494467 40.10889389 14.4921875 39.09570312 C13.03448185 38.17470983 11.57442869 37.25741938 10.11181641 36.34423828 C8.6856648 35.43644745 7.27645956 34.50155361 5.88427734 33.54248047 C2.90744567 31.53370119 0.57679784 30.12496017 -2.95703125 29.359375 C-7.51871449 30.31972937 -10.85222444 32.67208826 -14.6875 35.25 C-16.38908982 36.35973249 -18.09091943 37.46909739 -19.79296875 38.578125 C-20.65841309 39.14853516 -21.52385742 39.71894531 -22.41552734 40.30664062 C-26.41042293 42.92411614 -30.45559563 45.45999118 -34.5 48 C-36.08361216 48.99955839 -37.66694477 49.9995598 -39.25 51 C-61.41666667 65 -83.58333333 79 -105.75 93 C-106.5342334 93.49532227 -107.3184668 93.99064453 -108.12646484 94.50097656 C-109.70485345 95.4978194 -111.28330366 96.49456469 -112.86181641 97.49121094 C-116.89632289 100.03870646 -120.92964187 102.58805099 -124.9609375 105.140625 C-128.91574822 107.64415411 -132.87339331 110.14311927 -136.83447266 112.63671875 C-138.2435872 113.52380958 -139.65214598 114.41178405 -141.06005859 115.30078125 C-142.89126222 116.45530543 -144.72610588 117.6037557 -146.5625 118.75 C-147.57441406 119.38421875 -148.58632812 120.0184375 -149.62890625 120.671875 C-152 122 -152 122 -154 122 C-155.31274414 120.59472656 -155.31274414 120.59472656 -156.78515625 118.640625 C-157.58083008 117.58488281 -157.58083008 117.58488281 -158.39257812 116.5078125 C-158.94365234 115.76273437 -159.49472656 115.01765625 -160.0625 114.25 C-160.61744141 113.52039063 -161.17238281 112.79078125 -161.74414062 112.0390625 C-162.53788086 110.97558594 -162.53788086 110.97558594 -163.34765625 109.890625 C-163.83242432 109.24125977 -164.31719238 108.59189453 -164.81665039 107.92285156 C-166.03737536 105.93926793 -166.56701265 104.27595106 -167 102 C-165.99066406 101.3915625 -164.98132813 100.783125 -163.94140625 100.15625 C-151.53101044 92.64061035 -139.31412126 84.83779122 -127.10888672 76.99462891 C-122.35136596 73.9422538 -117.58266683 70.90756114 -112.8125 67.875 C-111.91692383 67.30547607 -111.02134766 66.73595215 -110.09863281 66.14916992 C-108.29970639 65.00526971 -106.50071577 63.86147045 -104.70166016 62.71777344 C-100.13353943 59.81326436 -95.56684923 56.90650771 -91 54 C-89.16667337 52.8333228 -87.33334004 51.66665613 -85.5 50.5 C-84.5925 49.9225 -83.685 49.345 -82.75 48.75 C-52.5 29.5 -52.5 29.5 -49.74682617 27.74804688 C-47.92399174 26.58801714 -46.10123709 25.42786206 -44.27856445 24.26757812 C-39.53526345 21.24830338 -34.79035914 18.23159134 -30.04296875 15.21875 C-29.06263672 14.59613281 -28.08230469 13.97351562 -27.07226562 13.33203125 C-25.21340989 12.15152571 -23.35407171 10.97177931 -21.49414062 9.79296875 C-20.64400391 9.25285156 -19.79386719 8.71273437 -18.91796875 8.15625 C-18.09731934 7.63804688 -17.27666992 7.11984375 -16.43115234 6.5859375 C-14.77491476 5.50550776 -13.1452741 4.38344301 -11.54150391 3.2265625 C-10.76081543 2.66710937 -9.98012695 2.10765625 -9.17578125 1.53125 C-8.49040283 1.02142578 -7.80502441 0.51160156 -7.09887695 -0.01367188 C-4.27101383 -1.34257347 -2.94115484 -0.9649473 0 0 Z " fill="#0054BD" transform="translate(259,27)"/>
<path d="M0 0 C2.43324502 1.21186872 4.69893104 2.49987717 6.98364258 3.97119141 C8.25498047 4.78523438 8.25498047 4.78523438 9.55200195 5.61572266 C10.46272461 6.20482422 11.37344727 6.79392578 12.31176758 7.40087891 C13.75519531 8.32707031 13.75519531 8.32707031 15.2277832 9.27197266 C17.28486656 10.59221008 19.34082363 11.91420376 21.39575195 13.23779297 C25.56633899 15.92256013 29.74451011 18.5953895 33.92285156 21.26806641 C37.08049994 23.28786109 40.23714614 25.30921606 43.39379883 27.33056641 C51.87193272 32.75646607 60.36556366 38.15794764 68.86010742 43.55810547 C73.42822815 46.46261455 77.99491835 49.36937119 82.56176758 52.27587891 C84.39509421 53.4425561 86.22842754 54.60922277 88.06176758 55.77587891 C93.56176758 59.27587891 93.56176758 59.27587891 99.06176758 62.77587891 C99.96967041 63.35362061 100.87757324 63.9313623 101.81298828 64.52661133 C103.64230625 65.6907523 105.47157076 66.85497727 107.30078125 68.01928711 C112.8890224 71.57607396 118.47932518 75.12959283 124.07104492 78.6809082 C126.81873514 80.42806778 129.56349006 82.17976201 132.30786133 83.93212891 C135.76696666 86.13982383 139.23869939 88.32521127 142.72192383 90.49462891 C144.29361314 91.48409355 145.86523171 92.47367057 147.43676758 93.46337891 C148.1629126 93.9089917 148.88905762 94.35460449 149.63720703 94.8137207 C151.3317966 95.88833338 152.95598005 97.07260311 154.56176758 98.27587891 C154.56176758 101.67181369 154.0401081 102.34207772 152.06176758 104.96337891 C151.36567383 105.89730469 151.36567383 105.89730469 150.65551758 106.85009766 C150.29458008 107.32060547 149.93364258 107.79111328 149.56176758 108.27587891 C144.85714496 106.62513413 140.83764355 104.13946186 136.62426758 101.52587891 C135.45432251 100.80549438 135.45432251 100.80549438 134.26074219 100.07055664 C125.19781813 94.46901119 116.22558272 88.72404508 107.24731445 82.98828125 C103.13077551 80.36342633 99.00339092 77.75587816 94.87426758 75.15087891 C94.10219971 74.66369385 93.33013184 74.17650879 92.53466797 73.67456055 C90.98598993 72.69748224 89.43724349 71.72051233 87.88842773 70.74365234 C83.94516513 68.25604533 80.0035599 65.76581476 76.06176758 63.27587891 C74.47844198 62.27586666 72.89510865 61.27586666 71.31176758 60.27587891 C42.81176758 42.2758789 42.81176758 42.2758789 40.43408203 40.77416992 C38.85971601 39.77984201 37.28533464 38.7855384 35.7109375 37.79125977 C31.61527449 35.20468158 27.51992415 32.6176102 23.42504883 30.02978516 C22.57942383 29.49546875 21.73379883 28.96115234 20.86254883 28.41064453 C19.25958409 27.39778219 17.65671225 26.3847728 16.05395508 25.37158203 C14.59624943 24.45058874 13.13619627 23.53329829 11.67358398 22.62011719 C10.24743238 21.71232635 8.83822713 20.77743251 7.44604492 19.81835938 C4.46921325 17.8095801 2.13856542 16.40083907 -1.39526367 15.63525391 C-5.95694692 16.59560827 -9.29045687 18.94796717 -13.12573242 21.52587891 C-14.82732224 22.6356114 -16.52915185 23.7449763 -18.23120117 24.85400391 C-19.52936768 25.70961914 -19.52936768 25.70961914 -20.85375977 26.58251953 C-24.84865535 29.19999504 -28.89382805 31.73587009 -32.93823242 34.27587891 C-34.52184458 35.2754373 -36.10517719 36.27543871 -37.68823242 37.27587891 C-59.85489909 51.27587891 -82.02156576 65.27587891 -104.18823242 79.27587891 C-104.97246582 79.77120117 -105.75669922 80.26652344 -106.56469727 80.77685547 C-108.14308587 81.7736983 -109.72153609 82.77044359 -111.30004883 83.76708984 C-115.33455531 86.31458537 -119.3678743 88.8639299 -123.39916992 91.41650391 C-127.35398064 93.92003302 -131.31162573 96.41899817 -135.27270508 98.91259766 C-136.68181963 99.79968848 -138.0903784 100.68766295 -139.49829102 101.57666016 C-141.32949464 102.73118433 -143.1643383 103.87963461 -145.00073242 105.02587891 C-146.51860352 105.97720703 -146.51860352 105.97720703 -148.06713867 106.94775391 C-150.43823242 108.27587891 -150.43823242 108.27587891 -152.43823242 108.27587891 C-154.63520326 105.40729522 -156.49372308 102.31945874 -158.43823242 99.27587891 C-151.41474599 94.24246053 -144.2273214 89.56362488 -136.87573242 85.02587891 C-129.81848899 80.64301039 -122.77532069 76.24613913 -115.81323242 71.71337891 C-106.67490277 65.76559631 -97.47261986 59.91999559 -88.26879883 54.07421875 C-83.65689019 51.1441412 -79.04767541 48.20983312 -74.43823242 45.27587891 C-72.6049125 44.10919117 -70.77157915 42.94252452 -68.93823242 41.77587891 C-68.03073242 41.19837891 -67.12323242 40.62087891 -66.18823242 40.02587891 C-57.93823242 34.77587891 -57.93823242 34.77587891 -55.18701172 33.02514648 C-53.35769375 31.86100551 -51.52842924 30.69678054 -49.69921875 29.5324707 C-45.05488981 26.57646225 -40.40957838 23.62201781 -35.76245117 20.67041016 C-34.82780029 20.07615234 -33.89314941 19.48189453 -32.93017578 18.86962891 C-31.07955292 17.69420065 -29.22752895 16.52097506 -27.37402344 15.35009766 C-23.01955111 12.59219959 -18.70473785 9.79684194 -14.45385742 6.88134766 C-13.67824463 6.35629639 -12.90263184 5.83124512 -12.10351562 5.2902832 C-10.65917225 4.30844628 -9.22462224 3.31198303 -7.80224609 2.29858398 C-3.05580322 -0.90753103 -3.05580322 -0.90753103 0 0 Z " fill="#00499C" transform="translate(257.438232421875,40.72412109375)"/>
<path d="M0 0 C2.62492018 2.13274764 3.86611504 3.41090616 4.625 6.75 C3.98561991 10.07477647 3.35377968 11.14179722 1.33984375 13.734375 C0.79521484 14.43852539 0.25058594 15.14267578 -0.31054688 15.86816406 C-2.87079798 19.09881618 -5.45043251 22.31107393 -8.0625 25.5 C-9.20967656 26.90621643 -10.35681078 28.31246741 -11.50390625 29.71875 C-12.08414551 30.42902344 -12.66438477 31.13929688 -13.26220703 31.87109375 C-16.01420695 35.24246763 -18.75679284 38.62147123 -21.5 42 C-22.57808212 43.32685776 -23.65620726 44.65368056 -24.734375 45.98046875 C-26.95364061 48.71182122 -29.1723195 51.44364896 -31.390625 54.17578125 C-36.79529309 60.83152992 -42.20760639 67.48063627 -47.640625 74.11328125 C-52.21049414 79.70456154 -56.7588169 85.313385 -61.31054688 90.91943359 C-62.96189799 92.95307726 -64.61366218 94.98638447 -66.265625 97.01953125 C-66.80010254 97.67735596 -67.33458008 98.33518066 -67.88525391 99.01293945 C-68.96027753 100.3358329 -70.03547239 101.65858721 -71.11083984 102.98120117 C-73.89885185 106.41081824 -76.68296729 109.84349237 -79.4609375 113.28125 C-82.17869774 116.64390904 -84.91073074 119.99452492 -87.65039062 123.33935547 C-88.77703383 124.72564836 -89.88330092 126.12846909 -90.984375 127.53515625 C-98.24311026 136.5048791 -107.14435675 140.26573295 -117.84472656 143.74560547 C-118.89864216 144.09226194 -119.95255775 144.43891842 -121.03841019 144.79607964 C-132.64820977 148.58602822 -144.34042845 152.09314494 -156.046875 155.5703125 C-158.36372824 156.26161389 -160.68047808 156.95326191 -162.99713135 157.64523315 C-169.02485807 159.44471495 -175.05392028 161.2396788 -181.08331299 163.03356934 C-187.18264973 164.84910558 -193.28073598 166.66883161 -199.37890625 168.48828125 C-206.26416158 170.54232022 -213.14952976 172.59597345 -220.03582764 174.64651489 C-222.11991518 175.26710534 -224.20400131 175.88770052 -226.28808594 176.50830078 C-227.2819569 176.80425203 -228.27582787 177.10020329 -229.29981613 177.40512276 C-236.72522271 179.61739609 -244.14728303 181.84069201 -251.56640244 184.07396126 C-274.3114329 190.91265438 -293.67722881 191.12459605 -315.34375 180.6640625 C-316.3109346 180.19946121 -317.2781192 179.73485992 -318.27461243 179.25617981 C-327.64727426 174.71817274 -336.93656348 170.01655785 -346.22638512 165.31199837 C-348.93762167 163.93926825 -351.64969164 162.56819838 -354.36201477 161.19761658 C-356.20944389 160.2639093 -358.05687124 159.33019854 -359.90429688 158.39648438 C-360.82926059 157.92908624 -361.7542243 157.4616881 -362.70721722 156.98012638 C-367.43073548 154.59198022 -372.15112437 152.19795845 -376.8659668 149.79272461 C-381.50839306 147.42498241 -386.15885321 145.07371396 -390.81475258 142.732584 C-392.55679506 141.85306259 -394.29600188 140.96789588 -396.03194237 140.07639122 C-411.04501217 132.37215445 -427.15281266 125.00844211 -444.359375 125.1953125 C-445.28550598 125.18160614 -446.21163696 125.16789978 -447.16583252 125.15377808 C-450.02775795 125.11738095 -452.88788237 125.12012997 -455.75 125.125 C-457.73049479 125.10680946 -459.7109672 125.08598734 -461.69140625 125.0625 C-466.46122705 125.01149922 -471.22992214 124.9955084 -476 125 C-476 122.36 -476 119.72 -476 117 C-471.35932827 116.92502022 -466.71902046 116.87101266 -462.07788086 116.83520508 C-460.50392503 116.82025483 -458.93000985 116.79988706 -457.35620117 116.77368164 C-435.46561574 116.41869917 -418.97471069 124.86010727 -399.79238701 134.63562012 C-396.55893854 136.28164076 -393.32164066 137.91983923 -390.08302307 139.55566406 C-380.88197857 144.20314999 -371.68250985 148.85352738 -362.4987793 153.53515625 C-356.85835496 156.40978216 -351.2089831 159.26611825 -345.55360603 162.11120605 C-343.41958327 163.18892881 -341.28882546 164.27314542 -339.16168022 165.36437988 C-323.44248835 173.42346573 -307.1790458 181.19297329 -289.0625 180.4375 C-288.24716797 180.43169922 -287.43183594 180.42589844 -286.59179688 180.41992188 C-274.87813265 180.1906019 -264.08943579 177.33175944 -253 173.75 C-251.71653081 173.34238593 -250.43275328 172.93574153 -249.14868164 172.5300293 C-246.602401 171.72540534 -244.05704597 170.91808424 -241.51220703 170.10888672 C-236.83376514 168.63179211 -232.13971736 167.21174282 -227.4375 165.8125 C-226.64794922 165.57692383 -225.85839844 165.34134766 -225.04492188 165.09863281 C-223.48174269 164.63252355 -221.91843067 164.16685954 -220.35498047 163.70166016 C-216.23477083 162.47405467 -212.11759096 161.23635446 -208 160 C-206.33334676 159.49995524 -204.66668012 158.99995516 -203 158.5 C-202.175 158.2525 -201.35 158.005 -200.5 157.75 C-186.75 153.625 -186.75 153.625 -173 149.5 C-172.17508057 149.2525 -171.35016113 149.005 -170.50024414 148.75 C-168.83281741 148.24982083 -167.16533688 147.74982095 -165.49780273 147.25 C-161.34230637 146.00420271 -157.18777795 144.75534874 -153.03515625 143.5 C-152.21474854 143.25258057 -151.39434082 143.00516113 -150.54907227 142.75024414 C-148.8941603 142.25092706 -147.23969777 141.75011792 -145.58569336 141.24780273 C-141.25073735 139.94013843 -136.90817029 138.69525711 -132.53125 137.53515625 C-112.82369054 132.27455171 -98.71140074 124.23967803 -86.171875 107.83984375 C-83.45775359 104.29098356 -80.63750065 100.83580218 -77.8125 97.375 C-76.68338619 95.987148 -75.55448243 94.59912509 -74.42578125 93.2109375 C-73.85811035 92.51323242 -73.29043945 91.81552734 -72.70556641 91.09667969 C-69.96883521 87.73237286 -67.2345045 84.36611672 -64.5 81 C-63.41667893 79.6666567 -62.33334558 78.33332338 -61.25 77 C-60.71375 76.34 -60.1775 75.68 -59.625 75 C-49.33333333 62.33333333 -39.04166667 49.66666667 -28.75 37 C-28.21310547 36.33919434 -27.67621094 35.67838867 -27.12304688 34.99755859 C-26.04627304 33.6723234 -24.9694506 32.3471277 -23.89257812 31.02197266 C-21.08347232 27.56507002 -18.27536678 24.10736136 -15.46875 20.6484375 C-14.88802734 19.93300781 -14.30730469 19.21757812 -13.70898438 18.48046875 C-12.60580375 17.12135022 -11.50291769 15.76199251 -10.40039062 14.40234375 C-9.89701172 13.78230469 -9.39363281 13.16226562 -8.875 12.5234375 C-8.39417969 11.93014648 -7.91335938 11.33685547 -7.41796875 10.72558594 C-6.47478762 9.57778907 -5.51899774 8.44023524 -4.55078125 7.31347656 C-2.44928789 4.867254 -1.03184398 3.09553193 0 0 Z " fill="#CD8A74" transform="translate(484,299)"/>
<path d="M0 0 C2.65450744 0.76959248 4.57315237 1.73058267 6.90478516 3.2019043 C7.72285645 3.71309814 8.54092773 4.22429199 9.38378906 4.75097656 C10.25825684 5.30841553 11.13272461 5.86585449 12.03369141 6.44018555 C12.95456543 7.01889404 13.87543945 7.59760254 14.82421875 8.19384766 C17.7536641 10.03832243 20.67558581 11.89425068 23.59619141 13.75268555 C25.4646525 14.93762631 27.33314161 16.12252289 29.20166016 17.30737305 C32.88701071 19.64765526 36.56887867 21.99330554 40.24853516 24.3425293 C45.25110185 27.5354844 50.26462976 30.71073567 55.28369141 33.87768555 C56.05600098 34.36503174 56.82831055 34.85237793 57.62402344 35.35449219 C59.17246126 36.33140151 60.72096359 37.3082086 62.26953125 38.28491211 C66.21279386 40.77251912 70.15439909 43.26274969 74.09619141 45.75268555 C75.67951701 46.75269779 77.26285034 47.7526978 78.84619141 48.75268555 C82.01285807 50.75268555 85.17952474 52.75268555 88.34619141 54.75268555 C89.13098877 55.24833008 89.91578613 55.74397461 90.72436523 56.25463867 C92.29718111 57.24803015 93.86993569 58.24151868 95.44262695 59.23510742 C99.56136291 61.83704418 103.68135976 64.43695471 107.80322266 67.03393555 C108.65787109 67.57276367 109.51251953 68.1115918 110.39306641 68.66674805 C112.02157691 69.69341771 113.65045909 70.71949816 115.27978516 71.74487305 C116.73391447 72.66193718 118.18346042 73.58632537 119.62744141 74.51928711 C121.41131796 75.63686453 123.26130506 76.64715282 125.11572266 77.64331055 C127.59619141 79.75268555 127.59619141 79.75268555 128.18212891 83.20581055 C128.11251953 84.4587793 128.04291016 85.71174805 127.97119141 87.00268555 C127.88998047 88.89760742 127.88998047 88.89760742 127.80712891 90.83081055 C127.73751953 91.7950293 127.66791016 92.75924805 127.59619141 93.75268555 C124.00119813 92.41713893 120.8736932 90.81138976 117.63134766 88.76831055 C116.20085083 87.8707605 116.20085083 87.8707605 114.74145508 86.95507812 C113.72414307 86.31078857 112.70683105 85.66649902 111.65869141 85.00268555 C110.59690674 84.33454834 109.53512207 83.66641113 108.44116211 82.97802734 C99.5547468 77.37926261 90.69340981 71.74076716 81.83837891 66.0925293 C74.54857151 61.44417033 67.2355517 56.83268233 59.92285156 52.22045898 C55.97958896 49.73285198 52.03798373 47.2426214 48.09619141 44.75268555 C46.51286581 43.7526733 44.92953248 42.7526733 43.34619141 41.75268555 C33.84619141 35.75268555 33.84619141 35.75268555 31.46777344 34.24926758 C29.89734922 33.25825456 28.32542601 32.26961263 26.75195312 31.28344727 C22.58019429 28.66429317 18.44868181 25.9988612 14.35400391 23.26049805 C13.49484375 22.69459961 12.63568359 22.12870117 11.75048828 21.5456543 C10.09866688 20.45634505 8.45617786 19.35271292 6.82470703 18.2331543 C2.78384025 15.41069041 2.78384025 15.41069041 -1.90380859 15.09643555 C-3.14130859 15.9162793 -3.14130859 15.9162793 -4.40380859 16.75268555 C-5.01562988 17.12119629 -5.62745117 17.48970703 -6.2578125 17.86938477 C-8.54215886 19.24882097 -10.78512775 20.68309886 -13.02880859 22.12768555 C-14.73967589 23.21894145 -16.4506154 24.31008416 -18.16162109 25.40112305 C-19.03334961 25.95896484 -19.90507812 26.51680664 -20.80322266 27.09155273 C-24.82654212 29.66146126 -28.86543941 32.20651943 -32.90380859 34.75268555 C-34.48722714 35.75255062 -36.07056023 36.75255103 -37.65380859 37.75268555 C-61.40380859 52.75268555 -61.40380859 52.75268555 -85.15380859 67.75268555 C-85.93828369 68.24816895 -86.72275879 68.74365234 -87.53100586 69.25415039 C-89.10692208 70.24941469 -90.6829305 71.244533 -92.2590332 72.23950195 C-96.33163495 74.81074001 -100.40237615 77.38485512 -104.47021484 79.96362305 C-120.52188662 90.13294722 -120.52188662 90.13294722 -128.40380859 94.75268555 C-129.93250564 89.54625358 -130.77433352 84.76069156 -128.40380859 79.75268555 C-122.80135526 74.04177072 -115.34226096 70.31358839 -108.41699219 66.44262695 C-105.04265121 64.55013074 -101.75270722 62.54735263 -98.46606445 60.5078125 C-96.31670128 59.17492579 -94.15458335 57.86494921 -91.98974609 56.55737305 C-83.93809311 51.66295467 -76.02938863 46.53757555 -68.08935547 41.46508789 C-63.97281653 38.84023297 -59.84543194 36.2326848 -55.71630859 33.62768555 C-54.94424072 33.14050049 -54.17217285 32.65331543 -53.37670898 32.15136719 C-51.82803094 31.17428888 -50.27928451 30.19731898 -48.73046875 29.22045898 C-44.00448615 26.23907311 -39.28062451 23.25432689 -34.55664062 20.26977539 C-30.43813245 17.66802734 -26.31839205 15.06826001 -22.19677734 12.47143555 C-20.91480469 11.66319336 -20.91480469 11.66319336 -19.60693359 10.83862305 C-17.97842309 9.81195338 -16.34954091 8.78587293 -14.72021484 7.76049805 C-13.98029297 7.29385742 -13.24037109 6.8272168 -12.47802734 6.34643555 C-11.77726074 5.9081543 -11.07649414 5.46987305 -10.35449219 5.01831055 C-9.11299717 4.21281491 -7.89328998 3.37189008 -6.70703125 2.48706055 C-2.95422913 -0.30394415 -2.95422913 -0.30394415 0 0 Z " fill="#F6C951" transform="translate(256.40380859375,74.247314453125)"/>
<path d="M0 0 C1.05731323 0.00241699 1.05731323 0.00241699 2.13598633 0.00488281 C10.17769407 0.19364226 16.39515887 2.75818435 22.1875 8.375 C24.71761146 11.86896345 24.61580771 15.16330749 24.1875 19.375 C21.76825791 25.75300188 18.53380521 27.71075531 12.4296875 30.52734375 C10.1875 31.375 10.1875 31.375 8.1875 31.375 C9.15335525 37.86002808 12.37120681 41.14706311 16.8984375 45.75 C19.03533915 47.64795298 19.03533915 47.64795298 21.4765625 47.125 C22.04117188 46.8775 22.60578125 46.63 23.1875 46.375 C23.5175 44.395 23.8475 42.415 24.1875 40.375 C29.4675 40.375 34.7475 40.375 40.1875 40.375 C40.60747075 47.09453202 40.15351334 51.80311623 36.1875 57.375 C32.78795931 60.95633431 28.85466836 63.98490395 23.890625 64.7109375 C16.61118758 64.82685211 11.62432668 63.43213916 6.13671875 58.55078125 C4.43277763 56.8673284 2.78848228 55.15609279 1.1875 53.375 C-1.9808377 54.78315009 -4.17863705 56.49712186 -6.6875 58.875 C-11.87548857 63.47062155 -16.61650473 64.92041557 -23.50390625 64.7578125 C-28.79733245 63.88005316 -32.58260451 60.66962683 -36.1875 56.875 C-39.87706652 51.19874381 -40.01118454 47.03093193 -39.8125 40.375 C-34.5325 40.375 -29.2525 40.375 -23.8125 40.375 C-23.1525 42.685 -22.4925 44.995 -21.8125 47.375 C-17.85535634 46.82262983 -15.92167331 44.9471925 -13.125 42.1875 C-12.33738281 41.43082031 -11.54976562 40.67414063 -10.73828125 39.89453125 C-8.52412674 36.99771653 -8.11922178 34.96728394 -7.8125 31.375 C-8.8025 31.2821875 -8.8025 31.2821875 -9.8125 31.1875 C-15.25354195 29.71388447 -19.5764334 27.15184574 -22.8125 22.5 C-24.43913042 17.41677993 -24.64159087 14.00129363 -22.1875 9.1875 C-16.21422942 2.1138901 -9.01620863 -0.02145439 0 0 Z " fill="#010101" transform="translate(255.8125,223.625)"/>
<path d="M0 0 C5.07057843 2.8410291 7.66834182 5.74050046 9.85546875 11.1171875 C10.68764412 16.94241507 9.84342896 20.51440845 6.47265625 25.3515625 C2.79870842 29.36273259 -1.37132416 30.83220779 -6.64453125 31.6796875 C-11.96160276 30.82515815 -15.9909771 28.6025217 -19.5390625 24.5078125 C-21.84985083 20.94772871 -22.83705644 17.41178654 -22.58984375 13.16796875 C-21.43599721 7.85420177 -18.37034772 3.57333859 -13.83203125 0.6171875 C-8.82278261 -1.42047297 -4.99043153 -2.05434886 0 0 Z " fill="#020202" transform="translate(294.14453125,192.8828125)"/>
<path d="M0 0 C5.07057843 2.8410291 7.66834182 5.74050046 9.85546875 11.1171875 C10.68764412 16.94241507 9.84342896 20.51440845 6.47265625 25.3515625 C2.79870842 29.36273259 -1.37132416 30.83220779 -6.64453125 31.6796875 C-11.99692115 30.81948198 -15.88207637 28.55272636 -19.57421875 24.578125 C-22.49820532 20.3232204 -22.52144122 16.48982151 -21.74609375 11.48046875 C-20.49609521 6.56976021 -18.05940619 3.48073541 -13.89453125 0.7421875 C-9.20607582 -1.62703198 -4.84379104 -1.9939832 0 0 Z " fill="#020101" transform="translate(230.14453125,192.8828125)"/>
</svg>
